<svg width="800" height="600" xmlns="http://www.w3.org/2000/svg">
  <!-- Background -->
  <rect width="800" height="600" fill="#f8f8f8" stroke="#ddd" stroke-width="2"/>
  
  <!-- Header -->
  <rect x="20" y="20" width="760" height="70" fill="#ffffff" stroke="#ccc" stroke-width="1" rx="4"/>
  <rect x="40" y="35" width="200" height="40" fill="#e0e0e0" rx="4"/>
  <rect x="600" y="35" width="150" height="40" fill="#4a90e2" rx="4"/>
  
  <!-- Main Container -->
  <rect x="20" y="110" width="760" height="470" fill="#ffffff" stroke="#ddd" stroke-width="1" rx="4"/>
  
  <!-- Email List Sidebar -->
  <rect x="40" y="130" width="300" height="440" fill="#f5f5f5" stroke="#ddd" stroke-width="1" rx="4"/>
  
  <!-- Email Items -->
  <rect x="50" y="150" width="280" height="80" fill="#ffffff" stroke="#ddd" stroke-width="1" rx="2"/>
  <rect x="60" y="160" width="200" height="20" fill="#c0c0c0" rx="2"/>
  <rect x="60" y="185" width="250" height="15" fill="#d0d0d0" rx="2"/>
  <rect x="60" y="205" width="180" height="15" fill="#d0d0d0" rx="2"/>
  
  <rect x="50" y="240" width="280" height="80" fill="#ffffff" stroke="#ddd" stroke-width="1" rx="2"/>
  <rect x="60" y="250" width="180" height="20" fill="#c0c0c0" rx="2"/>
  <rect x="60" y="275" width="240" height="15" fill="#d0d0d0" rx="2"/>
  <rect x="60" y="295" width="200" height="15" fill="#d0d0d0" rx="2"/>
  
  <rect x="50" y="330" width="280" height="80" fill="#ffffff" stroke="#ddd" stroke-width="1" rx="2"/>
  <rect x="60" y="340" width="220" height="20" fill="#c0c0c0" rx="2"/>
  <rect x="60" y="365" width="260" height="15" fill="#d0d0d0" rx="2"/>
  <rect x="60" y="385" width="190" height="15" fill="#d0d0d0" rx="2"/>
  
  <!-- Email Content Area -->
  <rect x="360" y="130" width="400" height="440" fill="#ffffff" stroke="#ddd" stroke-width="1" rx="4"/>
  
  <!-- Email Header -->
  <rect x="380" y="150" width="360" height="100" fill="#f9f9f9" stroke="#ddd" stroke-width="1" rx="2"/>
  <rect x="390" y="160" width="200" height="25" fill="#c0c0c0" rx="2"/>
  <rect x="390" y="195" width="300" height="20" fill="#d0d0d0" rx="2"/>
  <rect x="390" y="220" width="250" height="20" fill="#d0d0d0" rx="2"/>
  
  <!-- Email Body -->
  <rect x="380" y="270" width="360" height="280" fill="#ffffff" stroke="#ddd" stroke-width="1" rx="2"/>
  <rect x="390" y="280" width="340" height="20" fill="#d0d0d0" rx="2"/>
  <rect x="390" y="310" width="320" height="15" fill="#e0e0e0" rx="2"/>
  <rect x="390" y="335" width="300" height="15" fill="#e0e0e0" rx="2"/>
  <rect x="390" y="360" width="340" height="15" fill="#e0e0e0" rx="2"/>
  <rect x="390" y="385" width="280" height="15" fill="#e0e0e0" rx="2"/>
  <rect x="390" y="410" width="310" height="15" fill="#e0e0e0" rx="2"/>
  
  <!-- Action Buttons -->
  <rect x="380" y="470" width="360" height="80" fill="#f9f9f9" stroke="#ddd" stroke-width="1" rx="2"/>
  <rect x="400" y="485" width="100" height="35" fill="#4a90e2" rx="4"/>
  <rect x="520" y="485" width="100" height="35" fill="#c0c0c0" rx="4"/>
  <rect x="640" y="485" width="80" height="35" fill="#c0c0c0" rx="4"/>
</svg>

