<svg width="800" height="600" xmlns="http://www.w3.org/2000/svg">
  <!-- Background -->
  <rect width="800" height="600" fill="#fafafa" stroke="#ddd" stroke-width="2"/>
  
  <!-- Top Navigation -->
  <rect x="20" y="20" width="760" height="60" fill="#ffffff" stroke="#e0e0e0" stroke-width="1" rx="4"/>
  <rect x="40" y="35" width="120" height="30" fill="#e8e8e8" rx="4"/>
  <rect x="180" y="35" width="100" height="30" fill="#e8e8e8" rx="4"/>
  <rect x="300" y="35" width="100" height="30" fill="#e8e8e8" rx="4"/>
  <rect x="650" y="30" width="120" height="40" fill="#f472b6" rx="4"/>
  
  <!-- Main Content Area -->
  <rect x="20" y="100" width="760" height="480" fill="#ffffff" stroke="#e0e0e0" stroke-width="1" rx="4"/>
  
  <!-- Timeline Sidebar -->
  <rect x="40" y="120" width="180" height="450" fill="#f9f9f9" stroke="#e8e8e8" stroke-width="1" rx="4"/>
  
  <!-- Timeline Items -->
  <rect x="50" y="140" width="160" height="60" fill="#ffffff" stroke="#e0e0e0" stroke-width="1" rx="2"/>
  <circle cx="60" cy="155" r="4" fill="#f472b6"/>
  <rect x="75" y="150" width="120" height="12" fill="#c0c0c0" rx="2"/>
  <rect x="75" y="170" width="100" height="10" fill="#d0d0d0" rx="2"/>
  
  <rect x="50" y="210" width="160" height="60" fill="#ffffff" stroke="#e0e0e0" stroke-width="1" rx="2"/>
  <circle cx="60" cy="225" r="4" fill="#f472b6"/>
  <rect x="75" y="220" width="110" height="12" fill="#c0c0c0" rx="2"/>
  <rect x="75" y="240" width="90" height="10" fill="#d0d0d0" rx="2"/>
  
  <rect x="50" y="280" width="160" height="60" fill="#ffffff" stroke="#e0e0e0" stroke-width="1" rx="2"/>
  <circle cx="60" cy="295" r="4" fill="#f472b6"/>
  <rect x="75" y="290" width="130" height="12" fill="#c0c0c0" rx="2"/>
  <rect x="75" y="310" width="105" height="10" fill="#d0d0d0" rx="2"/>
  
  <!-- Diary Entry Area -->
  <rect x="240" y="120" width="520" height="450" fill="#ffffff" stroke="#e0e0e0" stroke-width="1" rx="4"/>
  
  <!-- Entry Header -->
  <rect x="260" y="140" width="480" height="80" fill="#f9f9f9" stroke="#e8e8e8" stroke-width="1" rx="2"/>
  <rect x="280" y="155" width="200" height="25" fill="#c0c0c0" rx="2"/>
  <rect x="280" y="190" width="150" height="20" fill="#d0d0d0" rx="2"/>
  
  <!-- Mood Tags -->
  <rect x="500" y="155" width="60" height="25" fill="#f472b6" rx="4"/>
  <rect x="570" y="155" width="60" height="25" fill="#60a5fa" rx="4"/>
  <rect x="640" y="155" width="60" height="25" fill="#34d399" rx="4"/>
  
  <!-- Entry Content -->
  <rect x="260" y="240" width="480" height="300" fill="#ffffff" stroke="#e8e8e8" stroke-width="1" rx="2"/>
  <rect x="280" y="260" width="440" height="20" fill="#d0d0d0" rx="2"/>
  <rect x="280" y="290" width="400" height="15" fill="#e0e0e0" rx="2"/>
  <rect x="280" y="315" width="420" height="15" fill="#e0e0e0" rx="2"/>
  <rect x="280" y="340" width="380" height="15" fill="#e0e0e0" rx="2"/>
  <rect x="280" y="365" width="410" height="15" fill="#e0e0e0" rx="2"/>
  <rect x="280" y="390" width="390" height="15" fill="#e0e0e0" rx="2"/>
  <rect x="280" y="415" width="400" height="15" fill="#e0e0e0" rx="2"/>
  <rect x="280" y="440" width="350" height="15" fill="#e0e0e0" rx="2"/>
  <rect x="280" y="465" width="380" height="15" fill="#e0e0e0" rx="2"/>
  
  <!-- Action Buttons -->
  <rect x="260" y="480" width="480" height="80" fill="#f9f9f9" stroke="#e8e8e8" stroke-width="1" rx="2"/>
  <rect x="280" y="495" width="100" height="35" fill="#f472b6" rx="4"/>
  <rect x="400" y="495" width="100" height="35" fill="#e0e0e0" rx="4"/>
  <rect x="520" y="495" width="100" height="35" fill="#e0e0e0" rx="4"/>
</svg>

