<svg width="800" height="600" xmlns="http://www.w3.org/2000/svg">
  <!-- Background -->
  <rect width="800" height="600" fill="#f5f5f5" stroke="#ddd" stroke-width="2"/>
  
  <!-- Header/Navigation -->
  <rect x="20" y="20" width="760" height="60" fill="#e0e0e0" stroke="#999" stroke-width="1" rx="4"/>
  <rect x="40" y="35" width="120" height="30" fill="#b0b0b0" rx="2"/>
  <rect x="200" y="35" width="80" height="30" fill="#c0c0c0" rx="2"/>
  <rect x="300" y="35" width="80" height="30" fill="#c0c0c0" rx="2"/>
  <rect x="400" y="35" width="80" height="30" fill="#c0c0c0" rx="2"/>
  <rect x="650" y="30" width="100" height="40" fill="#999" rx="4"/>
  
  <!-- Sidebar -->
  <rect x="20" y="100" width="200" height="480" fill="#e8e8e8" stroke="#999" stroke-width="1" rx="4"/>
  <rect x="30" y="110" width="180" height="40" fill="#d0d0d0" rx="2"/>
  <rect x="30" y="160" width="180" height="30" fill="#d0d0d0" rx="2"/>
  <rect x="30" y="200" width="180" height="30" fill="#d0d0d0" rx="2"/>
  <rect x="30" y="240" width="180" height="30" fill="#d0d0d0" rx="2"/>
  <rect x="30" y="280" width="180" height="30" fill="#d0d0d0" rx="2"/>
  
  <!-- Main Content Area -->
  <rect x="240" y="100" width="540" height="480" fill="#fafafa" stroke="#999" stroke-width="1" rx="4"/>
  
  <!-- Content Cards -->
  <rect x="260" y="120" width="250" height="140" fill="#e8e8e8" stroke="#bbb" stroke-width="1" rx="4"/>
  <rect x="280" y="140" width="210" height="20" fill="#c0c0c0" rx="2"/>
  <rect x="280" y="170" width="180" height="15" fill="#d0d0d0" rx="2"/>
  <rect x="280" y="190" width="150" height="15" fill="#d0d0d0" rx="2"/>
  <rect x="280" y="210" width="100" height="30" fill="#999" rx="4"/>
  
  <rect x="530" y="120" width="230" height="140" fill="#e8e8e8" stroke="#bbb" stroke-width="1" rx="4"/>
  <rect x="550" y="140" width="190" height="20" fill="#c0c0c0" rx="2"/>
  <rect x="550" y="170" width="160" height="15" fill="#d0d0d0" rx="2"/>
  <rect x="550" y="190" width="140" height="15" fill="#d0d0d0" rx="2"/>
  <rect x="550" y="210" width="90" height="30" fill="#999" rx="4"/>
  
  <rect x="260" y="280" width="500" height="120" fill="#e8e8e8" stroke="#bbb" stroke-width="1" rx="4"/>
  <rect x="280" y="300" width="460" height="20" fill="#c0c0c0" rx="2"/>
  <rect x="280" y="330" width="400" height="15" fill="#d0d0d0" rx="2"/>
  <rect x="280" y="350" width="380" height="15" fill="#d0d0d0" rx="2"/>
  <rect x="280" y="370" width="120" height="20" fill="#999" rx="4"/>
  
  <!-- Bottom Action Bar -->
  <rect x="260" y="420" width="500" height="50" fill="#e0e0e0" stroke="#999" stroke-width="1" rx="4"/>
  <rect x="280" y="430" width="100" height="30" fill="#999" rx="4"/>
  <rect x="400" y="430" width="100" height="30" fill="#b0b0b0" rx="4"/>
  <rect x="520" y="430" width="100" height="30" fill="#b0b0b0" rx="4"/>
</svg>

